<svg xmlns="http://www.w3.org/2000/svg" xmlns:xlink="http://www.w3.org/1999/xlink" viewBox="0 0 63.34 62.35"><defs><style>.cls-1{fill:#fff;}.cls-2{fill:url(#linear-gradient);}.cls-3{fill:#3d568e;}</style><linearGradient id="linear-gradient" x1="31.67" y1="0.67" x2="31.67" y2="62.31" gradientUnits="userSpaceOnUse"><stop offset="0" stop-color="#4d69a2"/><stop offset="1" stop-color="#3c5a99"/></linearGradient></defs><title>Asset 1</title><g id="Layer_2" data-name="Layer 2"><g id="Layer_1-2" data-name="Layer 1"><rect class="cls-1" x="0.36" y="0.36" width="62.63" height="61.63" rx="2.86"/><path class="cls-2" d="M63,59.13V3.21A2.85,2.85,0,0,0,60.13.36H3.21A2.85,2.85,0,0,0,.36,3.2V59.14A2.86,2.86,0,0,0,3.21,62H34.82V37.25H26.66V28.72h8.16V19.46a9.53,9.53,0,0,1,9.09-9.27H53v7.75H48.83c-2.08,0-4.84,1.69-4.84,3.76v7h8.23v8.53H44V62H60.13A2.85,2.85,0,0,0,63,59.13Z"/><path class="cls-3" d="M60.13,62.35H43.63V36.89h8.23V29.08H43.63V21.7c0-2.21,2.86-4.11,5.2-4.11h3.86v-7H43.91c-3.65,0-8.73,3.4-8.73,8.92v9.62H27v7.81h8.16V62.35h-32A3.22,3.22,0,0,1,0,59.14V3.2A3.22,3.22,0,0,1,3.21,0H60.13a3.21,3.21,0,0,1,3.21,3.21V59.13A3.22,3.22,0,0,1,60.13,62.35Zm-15.79-.72H60.13a2.5,2.5,0,0,0,2.5-2.5V3.21a2.51,2.51,0,0,0-2.5-2.5H3.21A2.5,2.5,0,0,0,.72,3.2V59.14a2.51,2.51,0,0,0,2.5,2.49H34.46v-24H26.31V28.36h8.15v-8.9a9.92,9.92,0,0,1,9.45-9.63H53.4V18.3H48.83c-2,0-4.49,1.6-4.49,3.4v6.66h8.23V37.6H44.34Z"/></g></g></svg>